<?xml version="1.0" encoding="UTF-8"?>
<svg xmlns="http://www.w3.org/2000/svg" viewBox="0 0 595.28 841.89">
  <defs>
    <style>
      .cls-1, .cls-2, .cls-3, .cls-4, .cls-5, .cls-6, .cls-7, .cls-8, .cls-9, .cls-10, .cls-11, .cls-12, .cls-13, .cls-14, .cls-15, .cls-16 {
        stroke: #1d1d1b;
      }

      .cls-1, .cls-2, .cls-4, .cls-5, .cls-8, .cls-9, .cls-10, .cls-14, .cls-15, .cls-16 {
        fill: none;
      }

      .cls-1, .cls-4, .cls-6, .cls-7, .cls-10, .cls-11, .cls-12, .cls-15, .cls-16 {
        stroke-miterlimit: 10;
      }

      .cls-1, .cls-5 {
        stroke-width: 4px;
      }

      .cls-17 {
        fill: #ffeb0f;
      }

      .cls-18 {
        fill: #0967b1;
      }

      .cls-19, .cls-3, .cls-12 {
        fill: #ffeb00;
      }

      .cls-20 {
        fill: #1d1d1b;
      }

      .cls-21 {
        fill: #fff;
      }

      .cls-2, .cls-3, .cls-5, .cls-8, .cls-9, .cls-13, .cls-14 {
        stroke-linejoin: round;
      }

      .cls-2, .cls-3, .cls-9, .cls-11, .cls-13 {
        stroke-width: 2px;
      }

      .cls-3, .cls-9, .cls-15 {
        stroke-linecap: round;
      }

      .cls-4 {
        stroke-linecap: square;
      }

      .cls-6, .cls-22, .cls-11, .cls-13 {
        fill: #8d3852;
      }

      .cls-7 {
        fill: #c6c6c6;
      }

      .cls-7, .cls-10 {
        stroke-width: .5px;
      }

      .cls-23 {
        fill: #2a5d6a;
      }

      .cls-24 {
        fill: #5f7136;
      }

      .cls-12, .cls-14 {
        stroke-width: 3px;
      }
    </style>
  </defs>
  <g id="_Основа" data-name="Основа">
    <ellipse class="cls-12" cx="298.5" cy="196.94" rx="67.54" ry="25.02"/>
    <path class="cls-12" d="M298.5,174.54c48.97,48.96,205.73-39.63,205.73-39.63v411.25c0,60.73-58.74,78.67-112.24,92.34-49.76,12.72-92.69,19.02-93.48,68.44h0c-.8-49.43-43.72-55.72-93.48-68.44-53.5-13.68-112.24-31.61-112.24-92.34V134.91s156.76,88.59,205.72,39.63h0Z"/>
    <path id="_Обводка_верха" data-name="Обводка верха" class="cls-5" d="M504.23,140.56c-40.76,12.99-135.06,87.5-205.73,46.03h0c-70.67,41.47-164.96-32.89-205.73-45.87"/>
    <path class="cls-18" d="M298.5,258.88h0,0,0c-52.15,0-157.08-31.16-205.72-52.71v187.55h205.73v-134.84h0Z"/>
    <path id="_Обводка_верха-2" data-name="Обводка верха" class="cls-1" d="M92.78,206.17c48.64,21.55,153.58,52.71,205.72,52.71h0c52.15,0,157.08-31.16,205.73-52.71"/>
    <path class="cls-18" d="M298.83,393.72l-.28,196.29c179.59-6.95,205.68-93.74,205.68-93.74v-102.56h-205.4Z"/>
    <path id="_Верх" data-name="Верх" class="cls-23" d="M298.5,258.88c52.15,0,157.08-31.16,205.73-52.71v-71.26c-40.76,12.99-135.06,95.47-205.72,54h0c-70.67,41.47-164.96-41.01-205.72-54v71.26c48.64,21.55,153.58,52.71,205.72,52.71h0Z"/>
    <path id="_Низ" data-name="Низ" class="cls-11" d="M298.5,590.01c179.63-6.93,205.73-93.74,205.73-93.74v49.89c0,60.73-58.74,78.67-112.24,92.34-49.76,12.72-92.69,19.02-93.48,68.44h0s0,0,0,0h0c-.8-49.43-43.72-55.72-93.48-68.44-53.5-13.68-112.24-31.61-112.24-92.34v-49.89s26.09,86.8,205.72,93.74h0Z"/>
    <path id="_Контур_обводка" data-name="Контур обводка" class="cls-14" d="M298.5,174.54c48.97,48.96,205.73-39.63,205.73-39.63v411.25c0,60.73-58.74,78.67-112.24,92.34-49.76,12.72-92.69,19.02-93.48,68.44h0c-.8-49.43-43.72-55.72-93.48-68.44-53.5-13.68-112.24-31.61-112.24-92.34V134.91s156.76,88.59,205.72,39.63h0Z"/>
    <polygon class="cls-13" points="298.5 258.88 309.63 174.54 298.5 156.47 298.5 156.47 287.38 174.54 298.5 258.88 298.5 258.88"/>
    <line class="cls-2" x1="92.78" y1="393.72" x2="504.22" y2="393.72"/>
    <line class="cls-2" x1="298.5" y1="258.88" x2="298.5" y2="590.01"/>
  </g>
  <g id="_Копиця" data-name="Копиця">
    <ellipse class="cls-8" cx="346.92" cy="280.41" rx="3.65" ry="3.08" transform="translate(-48.27 73.5) rotate(-11.31)"/>
    <circle class="cls-8" cx="388.56" cy="264.74" r="2.94"/>
    <circle class="cls-8" cx="413.01" cy="265.98" r="2.77"/>
    <circle class="cls-8" cx="406.58" cy="271.82" r="2.36"/>
    <circle class="cls-8" cx="423.95" cy="283.49" r="2.36"/>
    <circle class="cls-8" cx="424.94" cy="276.8" r="2.62"/>
    <circle class="cls-8" cx="446.77" cy="291.7" r="2.36"/>
    <circle class="cls-8" cx="445.04" cy="296.78" r="2.36"/>
    <ellipse class="cls-8" cx="405.78" cy="278.56" rx="2.8" ry="2.36" transform="translate(-86.41 276.12) rotate(-34.18)"/>
    <ellipse class="cls-8" cx="456.64" cy="289.34" rx="2.8" ry="2.36" transform="translate(-83.67 306.56) rotate(-34.18)"/>
    <ellipse class="cls-8" cx="456.64" cy="294.41" rx="2.8" ry="2.36" transform="translate(-86.53 307.44) rotate(-34.18)"/>
    <ellipse class="cls-8" cx="453.42" cy="301.05" rx="2.8" ry="1.52" transform="translate(-90.81 306.77) rotate(-34.18)"/>
    <circle class="cls-8" cx="433.05" cy="270.7" r="2.77"/>
    <ellipse class="cls-8" cx="344.06" cy="287.75" rx="2.94" ry="2.54"/>
    <ellipse class="cls-8" cx="348.08" cy="294.24" rx="2.94" ry="2.54"/>
    <ellipse class="cls-8" cx="357.85" cy="291.7" rx="2.94" ry="1.97" transform="translate(-50.27 75.87) rotate(-11.31)"/>
    <ellipse class="cls-8" cx="367.5" cy="290.29" rx="2.94" ry="1.97" transform="translate(-49.81 77.73) rotate(-11.31)"/>
    <ellipse class="cls-8" cx="355.22" cy="283.49" rx="2.94" ry="1.97" transform="translate(-96.42 334.21) rotate(-45)"/>
    <ellipse class="cls-8" cx="362.09" cy="276.62" rx="1.97" ry="2.94" transform="translate(-74.91 405.69) rotate(-53.83)"/>
    <ellipse class="cls-8" cx="365.55" cy="283.42" rx="2.16" ry="3.08" transform="translate(-78.98 411.27) rotate(-53.83)"/>
    <ellipse class="cls-8" cx="379.13" cy="287.96" rx="3.26" ry="1.97" transform="translate(-78.03 155.05) rotate(-21.01)"/>
    <ellipse class="cls-8" cx="386.19" cy="278.81" rx="3.26" ry="1.97" transform="translate(-14.99 22.04) rotate(-3.21)"/>
    <ellipse class="cls-8" cx="418.92" cy="289.55" rx="3.26" ry="1.97" transform="translate(-15.54 23.88) rotate(-3.21)"/>
    <ellipse class="cls-8" cx="382.79" cy="270.7" rx="1.97" ry="3.26" transform="translate(-26.67 499.05) rotate(-64.42)"/>
    <ellipse class="cls-8" cx="375.64" cy="282.63" rx="3.26" ry="1.97" transform="translate(-76.35 153.45) rotate(-21.01)"/>
    <ellipse class="cls-8" cx="396.63" cy="277.32" rx="3.26" ry="1.97" transform="translate(-73.05 160.62) rotate(-21.01)"/>
    <ellipse class="cls-8" cx="430.28" cy="290.29" rx="3.26" ry="1.97" transform="translate(-75.47 173.54) rotate(-21.01)"/>
    <ellipse class="cls-8" cx="434.15" cy="279.08" rx="3.26" ry="1.68" transform="translate(-71.19 174.19) rotate(-21.01)"/>
    <ellipse class="cls-8" cx="431.57" cy="284.57" rx="3.26" ry="1.68" transform="translate(-73.33 173.63) rotate(-21.01)"/>
    <ellipse class="cls-8" cx="415.02" cy="278.15" rx="3.26" ry="1.97" transform="translate(-72.13 167.27) rotate(-21.01)"/>
    <ellipse class="cls-8" cx="414.26" cy="272.36" rx="3.26" ry="1.97" transform="translate(-70.1 166.61) rotate(-21.01)"/>
    <ellipse class="cls-8" cx="443.65" cy="281.6" rx="3.26" ry="1.97" transform="translate(-71.46 177.76) rotate(-21.01)"/>
    <ellipse class="cls-8" cx="451.15" cy="283.2" rx="3.26" ry="1.97" transform="translate(-79.63 328.13) rotate(-36.96)"/>
    <ellipse class="cls-8" cx="450.27" cy="276.62" rx="3.26" ry="1.97" transform="translate(-75.85 326.28) rotate(-36.96)"/>
    <ellipse class="cls-8" cx="392.46" cy="271.41" rx="3.26" ry="1.97" transform="translate(-71.21 158.73) rotate(-21.01)"/>
    <ellipse class="cls-8" cx="373.58" cy="275.31" rx="4.1" ry="1.97" transform="translate(-73.86 152.22) rotate(-21.01)"/>
    <ellipse class="cls-8" cx="367.39" cy="268.74" rx="3.33" ry="2.5" transform="translate(-71.92 149.56) rotate(-21.01)"/>
    <path class="cls-9" d="M433.68,339.69c-3.64,1.35-9.39,1.15-13.27,1.23-6.7.14-13.3,1.86-20,1.95-2.58.03-5.16-.18-7.74-.35-9.36-.64-18.75-.86-28.12-.66-.42,0-.86.02-1.23.23-.4.23-.65.65-.84,1.06-1.6,3.43.42,7.47,3.48,9.69,1.98-.56,4.02-.92,6.07-1.08,4.33-.33,8.66.24,12.99.52,7.9.5,15.83,0,23.73-.49,2.72-.17,5.43-.34,8.15-.51,5.55-.35,11.12-.7,16.62-1.49.53-.57.88-1.42,1-2.2.39-2.65.09-5.39-.84-7.89"/>
    <path class="cls-9" d="M367.58,359.04c-1.68,3.61-3.35,7.23-5.03,10.84-1.55,3.34-3.13,6.85-2.93,10.53"/>
    <path class="cls-9" d="M371.56,362.03c-2.29,5.21-2.93,12.94-5.08,18.21-.41,1.02-.92,2.02-1.04,3.12"/>
    <path class="cls-9" d="M378.1,358.83c-1.08,2.4-1.08,5.13-1.47,7.73-.84,5.72-3.59,11.2-3.18,16.97"/>
    <path class="cls-9" d="M381.01,363.59c-.26,5.76-.31,11.54-.15,17.3"/>
    <path class="cls-9" d="M387.32,358.36c-.02,8.13-.02,16.26.02,24.39"/>
    <path class="cls-9" d="M395.25,360.51c.11,1.01.63,1.95.75,2.96.67,5.7.71,12.51,2.63,20.51"/>
    <path class="cls-9" d="M400.91,358.59c1.72,8.35,3.12,16.85,6.11,24.2"/>
    <path class="cls-9" d="M406.82,356.42c1.09.89,1.62,8.13,2.49,9.93"/>
    <path class="cls-9" d="M414.52,377.16c.82.86,3.29,8.72,3.32,9.93"/>
    <path class="cls-9" d="M416.57,357.97l.84,5.39c.31,1.97,4.05,16.12,6.02,18.64"/>
    <path class="cls-9" d="M426.58,358.11c1.37,8.02,1.21,16.47,4.56,23.89"/>
    <path class="cls-9" d="M431.83,354.49c.16,2.01.67,3.97,1.18,5.91.39,1.49.78,2.98,1.17,4.47.71,2.71,1.42,5.42,2.42,8.04,1.09,2.85,2.53,5.56,4.26,8.06"/>
    <path class="cls-9" d="M434.99,349.92c3.35,4.43,8.17,9.54,10.33,14.66,1.21,2.86,6.72,14.65,8.28,20.97"/>
    <path class="cls-9" d="M365.29,353.74c-5.7,9.77-11.09,19.71-16.48,29.65"/>
    <path class="cls-9" d="M405.5,342.92c3.96,1.86,7.33,3.24,11.29,5.09,1.13.53,2.27,1.06,3.46,1.44,3.15.99,6.54.82,9.83.64"/>
    <path class="cls-9" d="M421.59,340.9c0,.44.43.75.81.96,3.49,1.86,7.93,1.16,11.38,3.09"/>
    <path class="cls-9" d="M384.14,342.28l5.95,3.34c3.65,2.05,8.96,6.05,13.13,6.5"/>
    <path class="cls-9" d="M364.98,342.22c3.52,3.96,7.93,7.13,12.81,9.19"/>
    <path class="cls-9" d="M350.42,272.01c-.14,1.26-.08,2.54.17,3.79"/>
    <path class="cls-9" d="M358.98,266.07c.27,1.91.41,3.85.4,5.78"/>
    <path class="cls-9" d="M355.75,269.47c.18.84.71,1.57,1,2.38.58,1.6.21,3.41.76,5.02"/>
    <path class="cls-9" d="M369.85,258.65c.05,1.4.02,2.81-.09,4.21"/>
    <path class="cls-9" d="M376.52,260.05c.49,2,.63,4.08.41,6.13"/>
    <path class="cls-9" d="M383.22,258.72l-.6,2.81c-.27,1.29-.55,2.58-.97,3.83"/>
    <path class="cls-9" d="M395.82,258.21c.34,2.58.67,5.28-.23,7.73-.27.74-.65,1.44-.9,2.19"/>
    <path class="cls-9" d="M401.43,258.87c.45,4.24-1.15,8.65-4.2,11.62"/>
    <path class="cls-9" d="M405.96,260.14c.04,1.11.06,2.22.04,3.33-.03,1.92-.19,3.98-1.37,5.5"/>
    <path class="cls-9" d="M423.19,264.43l-.4,6.5"/>
    <path class="cls-9" d="M430.39,264.01c-.45.29-.85.68-1.15,1.13-.27.41-.47.86-.69,1.3-.66,1.29-1.57,2.46-2.68,3.39"/>
    <path class="cls-9" d="M443.8,267.99c-2.1,3.09-4.36,6.08-6.76,8.95"/>
    <path class="cls-9" d="M448.33,269.99c-1.32,1.85-2.98,3.47-4.86,4.76-.61.42-1.29.86-1.54,1.56"/>
    <path class="cls-9" d="M461.88,277.45c-1.16,1.66-3.13,2.53-4.6,3.91-.6.57-1.15,1.24-1.92,1.53"/>
    <path class="cls-9" d="M362.88,297.33c.71.63,1.08,1.54,1.42,2.43.95,2.5,1.78,5.03,2.5,7.6.43,1.54.84,3.14,1.83,4.4"/>
    <path class="cls-9" d="M374.26,320.58c-.04,1.03.56,1.95,1.07,2.85,1.92,3.36,2.74,7.22,3.54,11"/>
    <path class="cls-9" d="M383,292.09c.41,7.72,1.34,15.42,2.79,23.02"/>
    <path class="cls-9" d="M398.22,283.74c0,5.6-.4,11.2-1.19,16.75"/>
    <path class="cls-9" d="M412.7,293.78c.01.55-.14,1.09-.29,1.62-.59,2.08-1.17,4.16-1.75,6.25"/>
    <path class="cls-9" d="M410.67,311.3c-.43,2.93-1.55,5.71-2.35,8.56-.54,1.93-.93,3.89-1.33,5.85-.5,2.48-1,4.96-1.49,7.44"/>
    <path class="cls-9" d="M427.01,298.52c-.17.48-.38.95-.59,1.42-1.13,2.54-2.26,5.08-3.39,7.61"/>
    <path class="cls-9" d="M432.35,328.79c6.06-7.45,11.17-15.63,16.25-23.78"/>
    <line class="cls-9" x1="390.82" y1="282.89" x2="394.69" y2="338.46"/>
    <line class="cls-9" x1="408.06" y1="283.74" x2="400.21" y2="336.26"/>
    <line class="cls-9" x1="438.9" y1="290.29" x2="418.92" y2="336.37"/>
    <line class="cls-9" x1="443.18" y1="302.43" x2="423.95" y2="336.03"/>
    <line class="cls-9" x1="466" y1="295.13" x2="431.83" y2="339.69"/>
    <line class="cls-9" x1="348.08" y1="299.14" x2="367.5" y2="337.42"/>
    <line class="cls-9" x1="354.1" y1="296.78" x2="373.41" y2="335.68"/>
    <line class="cls-9" x1="374.25" y1="294.24" x2="387.33" y2="339.04"/>
    <line class="cls-9" x1="422.99" y1="293.78" x2="408.94" y2="336.95"/>
    <path class="cls-9" d="M336.61,276.8s-.58,11.16,5.68,24.25c5.78,12.09,21.03,41.04,21.03,41.04"/>
  </g>
  <g id="_Лодка" data-name="Лодка">
    <g id="_Весло" data-name="Весло">
      <path class="cls-3" d="M334.41,432.25c3.17-3.24,8.5-5.64,13.44-5.64,6.87,7.57,17.61,27.11,17.61,27.11l-3.4,5.64s51.96,83.95,52.13,85.65c.14,1.48-.7,4.05-4.98.58-3.43-2.77-36.56-62.33-51.43-85.15-1.32-.79-6.14-.23-6.14-.23,0,0-12.59-17.92-17.22-27.96Z"/>
      <line class="cls-3" x1="357.77" y1="460.44" x2="340.82" y2="433.72"/>
      <line class="cls-3" x1="362.06" y1="459.36" x2="348.62" y2="436.65"/>
    </g>
    <g id="_Весло-2" data-name="Весло">
      <path class="cls-3" d="M462.3,432.25c-3.17-3.24-8.5-5.64-13.44-5.64-6.87,7.57-17.61,27.11-17.61,27.11l3.4,5.64s-51.96,83.95-52.13,85.65c-.14,1.48.7,4.05,4.98.58,3.43-2.77,36.56-62.33,51.43-85.15,1.32-.79,6.14-.23,6.14-.23,0,0,12.59-17.92,17.22-27.96Z"/>
      <line class="cls-3" x1="438.94" y1="460.44" x2="455.89" y2="433.72"/>
      <line class="cls-3" x1="434.65" y1="459.36" x2="448.09" y2="436.65"/>
    </g>
    <g id="_Лодка-2" data-name="Лодка">
      <path class="cls-3" d="M307.53,499.19c5.21,11.35,10.08,16.57,20.68,23.98,21.65,4.61,55.29,5.61,73.77,5.08,18.44-.53,54.53-3.65,73.3-8.53,8.1-14.87,8.64-13.67,13.39-16.3l.33-1.63s-7.63-4.77-12.73-5.12c-48.03-.57-137-1.53-168.74,2.53Z"/>
      <path class="cls-9" d="M489,501.79s-23.37,4.86-88.18,4.99c-59.93.13-93.29-7.59-93.29-7.59"/>
      <path class="cls-20" d="M330.41,510.72c13.67,5.56,52.77,8.26,72.88,6.8-17.99,2.16-24.25,2.39-46.7.85,2.8,1.89,13.61,3.48,13.61,3.48,0,0-5.44.23-9.69-.35,8.38,3.13,39.85,2.97,59.93,1.12-10.19,2.78-42.94,4.9-69.28,3.88,42.55,4.96,102.1-1.99,124.12-6.77,2.57-4.63,2.6-8.92,13.68-17.76-16.72,5.52-111.81,12.7-158.56,8.76Z"/>
      <polygon class="cls-20" points="310.24 499.36 365.84 506.16 352.4 497.36 310.24 499.36"/>
      <polygon class="cls-20" points="373.87 496.58 392.87 506.16 418.51 506.16 398.58 497.36 373.87 496.58"/>
      <polygon class="cls-20" points="420.98 496.58 441.06 506.16 459.9 504.31 440.44 497.36 420.98 496.58"/>
      <polygon class="cls-20" points="466.12 496.58 481.57 501.82 488.79 501.37 479.06 497.36 466.12 496.58"/>
    </g>
  </g>
  <g id="_Ведмідь" data-name="Ведмідь">
    <g id="_Кольори" data-name="Кольори">
      <path id="path3491" class="cls-17" d="M206.04,483.94v-15.86h-63.85v15.86h63.85"/>
      <path id="path3493" class="cls-17" d="M206.04,452.28v-15.86h-63.85v15.86h63.85"/>
      <path id="path3495" class="cls-17" d="M142.2,499.74v15.8h63.85v-15.8h-63.85"/>
      <path id="path3495-2" data-name="path3495" class="cls-18" d="M142.2,515.54v15.8h63.85v-15.8h-63.85"/>
      <path id="path3495-3" data-name="path3495" class="cls-18" d="M142.2,483.94v15.8h63.85v-15.8h-63.85"/>
      <path id="path3495-4" data-name="path3495" class="cls-18" d="M142.2,452.28v15.8h63.85v-15.8h-63.85"/>
      <path id="path3495-5" data-name="path3495" class="cls-18" d="M142.2,420.62v15.8h63.85v-15.8h-63.85"/>
      <rect class="cls-4" x="142.2" y="420.62" width="63.85" height="110.72"/>
    </g>
    <g>
      <path class="cls-22" d="M232.36,424.52c2.09-.3,4.55.46,6.16.43,4.94-.09,4.19-2.62,7.94-2.56,1.9.03,3.33.52,4.45.51,2.51-.02,3.39-1.12,5.03-1.35.19-.2.16-.86.39-1.03,1.36,1.19.29,3.1.66,3.94,1.28-.39,2.09-2.15,2.69-2.04.86.15.3,2.29.36,3.06.06.72.91,1.16.94,2.74.02,1.08-1.71,3.03-1.65,4.14.07,1.27,1.16,3.05,1.09,5.28-.08,2.46-.79,4.85-.74,5.79.14,2.63,3.84,4.42,4.08,9.71s-.51,8.36-.48,11.09c.03,2.88.7,6.75.73,10.95.02,2.87-.57,5.88-.67,8.94-.11,3.4,1.67,3.83,1.83,10.3.11,4.41-2.07,4.79-2.07,4.79,0,0,.52,3.84-1.21,7.15,2.68,4.9.92,7.74.92,7.74,0,0,.65,1.66.27,3.07,1.03.84,1.07,2.69,1.07,2.69,0,0,2.6,5.46-1.69,8.95-.88.71-5.78.32-7.13-.16-.88.98-1.25,1.47-2.89,1.39s-1.9-1.41-2.43-1.41c-.65-.01-1.47,1.11-2.18,1.35-.46.16-.98.21-1.72.12-2.09,1.77-1.23-1.23-1.01-1.55.46-.67.22-2.03-.67-1.44-2.58,1.71-1.25-1.43-.69-2.08.19-.22,1.3-.98,1.04-1.52-.29-.6-1.92.83-2.21-.37-.11-.44.76-1.24,1.51-1.93.63-.58,1.13-.72,1.13-1.12,0-.66-1.63-.09-1.61-1.15.02-.58,1.03-.81,1.84-1.32,1.2-.75,1.54-1.09,3.13-1.14,4.06-.13,4.52,5.52,5.5,5.22.8-.24.02-1.15-.51-2.28-.42-.88-.7-1.93-1.03-2.36-.29-.39-1.04-1.01-1.66-1.62-.86-.84-1.6-1.64-1.6-1.64,0,0-1.33-.93-1.66-1.35-.74-.96-.63-2.31-1.05-2.87-.25-.33-1.15.15-1.46.56-.55.74-3.57.34-5.3,4.6s2.08,10.11-.45,13.5c-2.05,2.74-5.29,1.31-6.97,1.3-.93,0-1.72.99-3.08,1.03-1.43.04-3.04-2-4.19-2.05-.88-.03-1.61,1.67-2.39,1.81-.85.15-2.85.03-3.28.02-.55-.01-.35.95-1,.95-.59,0-.73-1.01-.39-2.43.28-1.19,1.2-1.56,1.12-2.34-.12-1.21-1.52,1.24-2.27.18-.5-.7,2.32-4.01,2.2-4.59-.09-.4-1.94.38-2.13-.78-.07-.41.35-.65.95-1.12.34-.26.49-.71.76-.91.23-.17.73-.09.94-.21.38-.22.52-.43.5-.62-.02-.16-2.02.17-2.08-.48-.05-.54,2.63-3.57,5.33-3.49,1.51.05,3.47,1.6,3.94,2.57.59,1.21.68,2.33,1.25,2.39.9.08.35-5.26,1.49-11.21,1.04-5.39,4.13-8.96,6.08-11.66-4.68-8.54-1.81-14.36-.32-19.17,1.2-3.88,1.39-5.26.74-5.29-.44-.02-.29,2.49-1.16,5.27-1.24,3.95-3.53,4.78-4.2,4.89-.86.45-.98.77-1.52,1.34-.05-1.91-.67-2.27-.67-2.27,0,0-.74.71-1.71,1.87-.76-1.72-.02-2.79-.52-3.21-.24-.2-.51.45-1.27.81-.27-1.28.03-1.48.08-2.01-.27-.09-.55.02-.88.16-.16-.93-.11-2.13.94-3.62.88-1.26.66-1.21,1.08-1.58.86-.76,4.21-1.06,3.94-1.96-.25-.82-1.47.08-4.02-.01-.3.03-.24.82-1.11.79-.72-.03-1.24-.69-1.56-.69-.49,0-1.57,1.06-2.58,2.54-1.09-.68-.83-2.23-1.16-2.39-.26-.12-.8.88-1.48,1.15-.34-.36-.14-2.09-.14-2.09,0,0-.3.25-1.31.51-.52-2.08.93-2.06.9-2.68-.02-.42-1.07.04-1.09-.39-.05-.82.79-1.83.79-1.82,0,0-1.12-2.91,1.73-4.64,4.82-2.93,8.56-1.34,11.32-2.33.5-.18.95-.84,1.76-1.46,1.21-.93,1.53-.92,2.13-1.41,1.13-.93,2.62-2.75,4.03-3.83.47-2.16,2.43-4.95,2.15-7.47-.48-4.18-1.4-5.4-4.64-6.77-.4-.17-1.86.1-2.38-.37-.57-.51-.5-1.83-.5-1.83,0,0-1.19.73-3.38-.94-2.43-1.85-2.16-2.38-2.14-3.12.02-.54.34-.9.78-.88,1.01.04.13.8,1.65,1.71,1.19.71.57,1.02,2.74,1.12,1.23.05,2.27-.69,4.38-.74,3.63-.07,4.89,2.13,4.96.69s-2.03-1.71-3.17-1.68c-.76.02-.76.68-1.2.67-.5,0-.47-.66-.86-.71-.35-.04-.28.58-.96.48-.64-.09-.6-1.14-1.51-1.83-.99-.75-2.01-.83-2.01-.83,0,0,.05-1.5-.5-2.85s-.43-2.72.09-3.26Z"/>
      <ellipse class="cls-21" cx="235.11" cy="427.44" rx=".82" ry=".55"/>
      <circle class="cls-21" cx="245.33" cy="428.14" r=".95"/>
      <path class="cls-21" d="M243.36,425.49c-.44.64.65,1.09,1.01,1.09.42,0,.59-.43,1.44-.46,1.91-.06.59,2.36,2.42,2.36.93,0,.75-.97.2-1.13-.34-.1-.38-.55-.55-.81-.16-.24-.31-.15-.44-.4-.18-.33.16-.89-.75-.92-.28,0-.41.17-.69.19-.26.02-.38-.07-.53-.06-.31.01-.47.21-.8.2-.25,0-.8-.8-1.31-.07Z"/>
      <path class="cls-21" d="M240.1,437.05s-.53-1.02-2.1-.54c-.79.24-1.69.16-1.69.16,0,0,.62,1.09,1.97.45.77-.36,1.81-.07,1.81-.07Z"/>
      <path class="cls-21" d="M245.74,440.51c.07-.74.86-.19,1.13-.1.38.12,1.21.13,1.59,0,.31-.1.92-.97,1.18-.65.38.46-.38,1.19-.84,1.33-.19.06-.67-.01-.94,0-.33.01-.5.3-.71.32-.33.03-.26-.21-.54-.31-.26-.09-.94.07-.87-.59Z"/>
      <path class="cls-21" d="M252.86,439.47c.29-.49-.33-2.25.74-2.16.47.04.11.59.05,1.27-.03.42.13.82.03,1.06-.48,1.08-2.36,2.78-3.04,1.83-.37-.53,1.84-1.37,2.21-2Z"/>
      <path class="cls-21" d="M251.38,438.47c.37,0,.37-1.18.59-1.52.44-.68,2.56-1.73,2.9-4.25.22-1.71-1.34-2.23-1.15-3.01.2-.83,2.08.8,2.59.14.55-.73.01-1.07.16-1.45.13-.32.61-1.27,0-1.36-.69-.1-3.02,1.11-3.31,2.56-.12.62.5,1.42.47,2.41-.04,1.3-1.21,3.04-1.74,3.99-.18.32-.91.58-1.01,1.26-.07.46-.07,1.23.49,1.23Z"/>
      <path class="cls-21" d="M257.72,435.11s.36,2.47-.88,1.99c-1.16-.44.88-1.99.88-1.99Z"/>
      <path class="cls-21" d="M257.56,437.82c.88.28-.66,2.32-1.14,1.76-.45-.52.03-.65.32-1.07s.21-.88.82-.69Z"/>
      <path class="cls-21" d="M256.83,441.02c.2-.17.43-.84.82-.63,1.65.91-1.47,2.82-1.65,1.09-.04-.43.62-.28.83-.46Z"/>
      <ellipse class="cls-21" cx="257.04" cy="444.01" rx=".55" ry=".84" transform="translate(-132.47 110.09) rotate(-19.33)"/>
      <path class="cls-21" d="M241.99,451.96s1.06,2.8-1.65,4.2c-.99.51-2.41,2.13-2.41,2.13,0,0-.02-1.99,1.82-3.01,1.73-.97,2.24-3.32,2.24-3.32Z"/>
      <path class="cls-21" d="M245.68,450.06s-.27,1.81-.19,2.43c.45,3.6-1.32,4.46-1.32,4.46,0,0,.39-1.82.27-3.26-.22-2.71,1.24-3.62,1.24-3.62Z"/>
      <path class="cls-21" d="M242.26,457.12s-1.92-.73-3.24,1.18c-.52.76-2.12,1.68-2.06,1.69s1.74.4,3.09-1.27c.41-.51,2.2-1.6,2.2-1.6Z"/>
      <path class="cls-21" d="M261.14,454.67s1.13,1.93-.49,5.45c-.5,1.08-.13,7.67-.13,7.67,0,0-2.28-5.37-.74-8.78.91-2.01,1.36-4.35,1.36-4.35Z"/>
      <path class="cls-21" d="M260,472.06c.39-2-2.47-4.14-2.54-6.24-.07-2.25,1.35-3.57.16-6.49-.24,3.06-1.47,3.72-1.34,6.51.11,2.29,2.22,3.76,3.71,6.22Z"/>
      <path class="cls-21" d="M230.47,470.05c.79.54,1.31-.64,1.76-1.06.55-.51,1.76-.87,1.55-1.26-.33-.6-1.58,0-2.32.49-.63.41-1.56,1.45-.99,1.83Z"/>
      <path class="cls-21" d="M233.35,469.82c.79.54,1.31-.64,1.76-1.06.55-.51,1.76-.87,1.55-1.26-.33-.6-1.58,0-2.32.49-.63.41-1.56,1.45-.99,1.83Z"/>
      <path class="cls-21" d="M236.22,469.4c.75.47,1.08-.54,1.53-.96.55-.51,1.39-.86,1.23-1.16-.21-.41-1.17-.25-2,.46-.48.41-1.35,1.3-.77,1.67Z"/>
      <path class="cls-21" d="M239.44,469.26c.55.24.58-.72,1.03-1.15.55-.51,1.26-1,.91-1.49-.28-.38-1.17.14-1.7.86-.45.6-.82,1.53-.23,1.78Z"/>
      <path class="cls-21" d="M242.38,467.25c.22.8,1.78.12,2.23-.3.55-.51,1.82-1.83.84-2.07-.67-.17-1.1.63-1.75,1.18-.58.48-1.48.57-1.31,1.19Z"/>
      <path class="cls-21" d="M237.75,484.8s.79,1.2-.14,3.02c-.32.63-.65,2.73-.65,2.73,0,0-.9-1.82-.33-3.07.74-1.64,1.12-2.68,1.12-2.68Z"/>
      <path class="cls-21" d="M239.45,488.08s.5,1.56-.49,2.98c-.74,1.05-.43,2.9-.43,2.9,0,0-1.09-1.47-.28-3.15.3-.63,1.2-2.73,1.2-2.73Z"/>
      <path class="cls-21" d="M244.43,488.92s1.08,2.99-4.03,6.49c-.78.53-.98,1-.98,1,0,0-.98-1,2.86-4.12,1.06-.86,2.16-3.37,2.16-3.37Z"/>
      <path class="cls-21" d="M244.53,494.61s-.44,1.23-3.13,2.92c-1,.63-3.79,2.99-3.79,2.99,0,0,.44-1.78,2.72-3.19.97-.6,4.2-2.72,4.2-2.72Z"/>
      <path class="cls-21" d="M237.89,502.32s-1.78,3.68-2.3,3.28c-.63-.49,2.3-3.28,2.3-3.28Z"/>
      <path class="cls-21" d="M246.23,505.71s.35.83-1.62,2.1c-1.18.75-2.91,1.87-2.91,1.87,0,0,.12-.74,1.97-1.95,1.2-.78,2.57-2.02,2.57-2.02Z"/>
      <path class="cls-21" d="M248.58,505.92c0,.83-.51,1.96-.8,1.92-.23-.04-.42-.18-.34-1.01.13-1.33.57-2.24.8-2.19.27.06.34.45.34,1.28Z"/>
      <path class="cls-21" d="M250.87,505.24c0,.89-.68,1.92-.93,1.81-.76-.35.04-1.66.04-2.02,0-.89.06-1.3.34-1.3s.54.63.54,1.52Z"/>
      <path class="cls-21" d="M252.94,504.35c0,1.15-.28,1.98-.77,1.89-.83-.15-.15-1.6-.15-1.96,0-.89-.02-1.56.35-1.52.28.03.57.7.57,1.59Z"/>
      <path class="cls-21" d="M254.94,502.89c0,.88-.33,1.61-.66,1.61-.25,0-.55-.35-.55-1.05,0-.88.42-2.32.85-2.26.25.04.36.82.36,1.7Z"/>
      <ellipse class="cls-21" cx="222.29" cy="516.65" rx="1.3" ry=".51"/>
      <ellipse class="cls-21" cx="221.57" cy="520.58" rx="1.69" ry=".66"/>
      <ellipse class="cls-21" cx="221.33" cy="523.42" rx="1.46" ry=".48" transform="translate(-61.47 30.49) rotate(-6.92)"/>
      <ellipse class="cls-21" cx="221.87" cy="526.66" rx="1.02" ry=".54" transform="translate(-61.86 30.58) rotate(-6.92)"/>
      <ellipse class="cls-21" cx="247.98" cy="519" rx="1.04" ry=".59"/>
      <ellipse class="cls-21" cx="247.11" cy="521.46" rx="1.16" ry=".72"/>
      <ellipse class="cls-21" cx="246.97" cy="524.62" rx="1.37" ry=".64" transform="translate(-97.66 58.31) rotate(-11.26)"/>
      <ellipse class="cls-21" cx="248.01" cy="526.86" rx="1.22" ry=".59" transform="translate(-203.84 159.54) rotate(-25.68)"/>
    </g>
  </g>
  <g id="_Млин" data-name="Млин">
    <rect class="cls-17" x="149.65" y="362.49" width="105.54" height="16.33"/>
    <path class="cls-17" d="M202.42,339.06s-19.5-8.38-26.38-8.38-26.39,8.38-26.39,8.38v25.26h52.77v-25.26Z"/>
    <polyline class="cls-16" points="255.19 362.49 255.19 378.83 149.65 378.83 149.65 362.49"/>
    <path class="cls-16" d="M202.42,362.49v-23.89s-19.5-7.92-26.38-7.92-26.39,7.92-26.39,7.92v23.89"/>
    <path class="cls-6" d="M248.86,352.5h-46.43c-1.46,5-14.38,9.99-14.38,9.99h69.83l-9.02-9.99Z"/>
    <g id="_Стояки" data-name="Стояки">
      <line class="cls-15" x1="161.84" y1="313.5" x2="148.51" y2="293.19"/>
      <line class="cls-15" x1="144.95" y1="296.93" x2="157.86" y2="296.93"/>
      <line class="cls-15" x1="191.38" y1="313.5" x2="204.7" y2="293.19"/>
      <line class="cls-15" x1="208.26" y1="296.93" x2="194.74" y2="296.93"/>
    </g>
    <path class="cls-6" d="M180.57,336.77c9.42.68,25.69,3.3,25.69,3.3,0,0-13.35-13.41-14.32-27.06-.73-10.21-5.67-28.15-15.9-28.15h0c-10.23,0-15.18,17.95-15.9,28.15-.97,13.65-14.32,27.06-14.32,27.06,0,0,18.67-2.92,27.79-3.45.92-.05,1.58-4.56,3.35-4.41,1.4.12,2.27,4.46,3.62,4.56Z"/>
    <rect class="cls-16" x="173.75" y="364.02" width="7.68" height="14.81"/>
    <line class="cls-16" x1="173.75" y1="368.83" x2="181.43" y2="368.8"/>
    <line class="cls-16" x1="173.75" y1="373.97" x2="181.43" y2="373.97"/>
    <rect class="cls-16" x="193.61" y="366.88" width="5.69" height="6.66"/>
    <rect class="cls-16" x="211.08" y="366.88" width="5.69" height="6.66"/>
    <rect class="cls-16" x="227.81" y="367.33" width="5.69" height="6.66"/>
    <g id="_Вітряк" data-name="Вітряк">
      <line class="cls-16" x1="164.31" y1="340.91" x2="164.42" y2="347.74"/>
      <line class="cls-16" x1="153.45" y1="341.81" x2="153.42" y2="348.64"/>
      <line class="cls-16" x1="147.2" y1="342.33" x2="147.1" y2="349.13"/>
      <path class="cls-16" d="M211.08,342.78v6.7s-21.7-2.1-35.04-2.1-35.04,2.25-35.04,2.25v-6.64s23.37-2.68,35.04-2.68,35.04,2.47,35.04,2.47Z"/>
      <line class="cls-16" x1="188.09" y1="341.02" x2="187.98" y2="347.91"/>
      <line class="cls-16" x1="198.63" y1="341.69" x2="198.65" y2="348.64"/>
      <line class="cls-16" x1="204.87" y1="342.21" x2="204.97" y2="349.13"/>
      <line class="cls-16" x1="176.04" y1="340.39" x2="176.04" y2="347.46"/>
    </g>
    <g>
      <rect class="cls-7" x="124.69" y="287.56" width="102.7" height="1.95" transform="translate(504.54 368.08) rotate(135)"/>
      <rect class="cls-7" x="181.92" y="265.8" width="39.21" height="6.66" transform="translate(534.34 316.94) rotate(135)"/>
      <rect class="cls-7" x="130.94" y="304.6" width="39.21" height="6.66" transform="translate(474.74 419.23) rotate(135)"/>
      <rect class="cls-7" x="124.69" y="287.56" width="102.7" height="1.95" transform="translate(255.58 -39.97) rotate(45)"/>
      <rect class="cls-7" x="130.94" y="265.8" width="39.21" height="6.66" transform="translate(234.4 -27.62) rotate(45)"/>
      <rect class="cls-7" x="181.92" y="304.6" width="39.21" height="6.66" transform="translate(276.77 -52.31) rotate(45)"/>
      <line class="cls-10" x1="136.74" y1="321.86" x2="164.36" y2="294.03"/>
      <line class="cls-10" x1="187.72" y1="283.05" x2="215.34" y2="255.22"/>
      <line class="cls-10" x1="136.82" y1="255.32" x2="164.64" y2="282.94"/>
      <line class="cls-10" x1="187.7" y1="294.21" x2="215.52" y2="321.83"/>
      <circle class="cls-7" cx="176.26" cy="288.76" r="2.15"/>
    </g>
    <path class="cls-24" d="M238.19,379.48h48.2c-.3-4.83-6.44-9.49-9.75-9.61-3.53-.12-3.09,3.56-4.94,3.47-3.43-.17-4.45-6.01-13.22-6.01-4.81,0-7.62,5.28-10.57,3.7-3.28-1.76-9.54,4.67-9.73,8.45Z"/>
    <path class="cls-24" d="M164.88,379.39c-10.12.89-19.66,1.4-29.29.66-.67-.05.16-1.96.16-1.96,0,0-10.48,1.52-13.49.24-.71-.3,1.78-2.01,1.18-2.23-2.04-.74-21.77,1.84-18.65-.09,22.18-13.69,34.05-15.76,44.2-15.15v9.09c.76,2.33,5.1,5.95,7.23,7.15,1.92,1.08,8.65,2.27,8.65,2.27Z"/>
    <ellipse class="cls-7" cx="121.62" cy="369.03" rx="3.29" ry="2.07"/>
    <ellipse class="cls-7" cx="127.59" cy="366.35" rx="2.68" ry="2.03"/>
    <ellipse class="cls-7" cx="132.3" cy="364.32" rx="2.48" ry="1.54"/>
    <ellipse class="cls-7" cx="135.76" cy="362.33" rx="1.95" ry="1.14"/>
  </g>
  <g id="_Текст_обриси" data-name="Текст обриси">
    <g>
      <path class="cls-19" d="M109.66,197.78v-23.66l13.04,5.6v5.68l-6.95-2.99v17.98l-6.09-2.61Z"/>
      <path class="cls-19" d="M135.31,208.48v-23.66l9.33,3.5c1.97.74,3.57,1.76,4.78,3.05s2.07,2.63,2.56,4.01c.49,1.38.74,2.67.74,3.88s-.25,2.33-.74,3.35c-.49,1.02-1.34,1.73-2.56,2.11-1.21.38-2.81.2-4.78-.54l-3.13-1.17v7.81l-6.2-2.33ZM141.51,192.35v5.44l1.77.66c2.03.76,3.04.23,3.04-1.6s-1.01-3.08-3.04-3.84l-1.77-.66Z"/>
      <path class="cls-19" d="M166.04,219.54v-23.66l13.53,4.3v5.68l-7.21-2.29v3.31l6.53,2.08v5.21l-6.53-2.08v3.79l7.21,2.29v5.68l-13.53-4.3Z"/>
      <path class="cls-19" d="M193.52,227.92v-23.66l16.93,4.35v5.68l-10.51-2.7v3.55l3.37.87c1.25.32,2.52.79,3.82,1.39,1.3.61,2.49,1.58,3.56,2.91,1.08,1.33,1.61,3.03,1.61,5.11,0,1.67-.34,2.93-1.01,3.78s-1.5,1.38-2.49,1.6c-.99.21-1.93.27-2.82.16-.9-.11-1.79-.28-2.69-.51l-9.79-2.52ZM199.94,224.84l2.75.71c1.03.27,1.83.28,2.38.04s.83-.81.83-1.73-.27-1.6-.81-2.11c-.54-.51-1.34-.91-2.39-1.18l-2.75-.71v4.98Z"/>
      <path class="cls-19" d="M228.59,212.6l17.7,3.21v23.66l-6.52-1.18v-17.98l-4.66-.85v9.32c0,1.11-.07,2.11-.21,3.02-.14.91-.48,1.77-1.02,2.59-.54.82-1.4,1.42-2.57,1.79-1.17.37-2.72.38-4.64.03-1.02-.19-1.93-.45-2.73-.8v-5.68c.6.27,1.08.43,1.43.5.97.18,1.69.09,2.16-.26s.76-.87.89-1.56.18-1.61.18-2.77v-13.05Z"/>
      <path class="cls-19" d="M259.75,241.39l6.37-8.37c-.88-.22-1.73-.62-2.55-1.21-.82-.59-1.5-1.4-2.05-2.43-.55-1.03-.82-2.26-.82-3.7,0-1.74.36-3.17,1.09-4.29.72-1.12,1.73-1.92,3.01-2.39,1.28-.47,2.75-.63,4.4-.5l9.67.79v23.66l-6.6-.54v-8.05l-.61-.05-4.81,7.65-7.08-.58ZM272.25,229.63v-5.68l-1.82-.15c-2.25-.18-3.37.67-3.37,2.56,0,1.15.33,1.94.98,2.36.65.42,1.45.68,2.39.75l1.82.15Z"/>
    </g>
    <g>
      <path class="cls-19" d="M205.64,623.67l-15.28-.23.02-1.62,3.91.06.39-25.42c.02-1.25-.09-2.15-.34-2.71-.25-.55-.83-.84-1.74-.85-.61,0-1.5.13-2.67.42l-.28-1.88c2.43-.42,4.61-1,6.55-1.73,1.96-.73,4.01-1.81,6.17-3.23l-.54,35.52,3.83.06-.02,1.62Z"/>
      <path class="cls-19" d="M262.12,634.23l.13-8.58c-2.01-.1-3.51-.16-4.49-.17-4.99-.08-8.76.44-11.3,1.56l-.83-3.54c.93-1.21,1.89-2.49,2.88-3.87,1.21-1.66,2.32-3.16,3.34-4.5,1.04-1.32,2.22-2.72,3.54-4.19,1.33-1.47,2.85-3,4.56-4.59,1.72-1.59,3.65-3.2,5.81-4.83,1.47-1.08,2.53-1.98,3.17-2.72l2.45,1.13c-.79,1.53-1.31,2.93-1.59,4.22-.29,1.27-.45,2.82-.48,4.67l-.18,11.96c2.13.03,4.11-.4,5.94-1.28l-1.86,6.95c-.47-.12-1.1-.25-1.87-.38-.46-.07-.73-.12-.81-.14-.2-.04-.69-.09-1.47-.17l-.13,8.58,3.63.05-.02,1.62-14.6-.22.02-1.62,4.16.06ZM262.32,620.82l.2-13.2c-1.42,1.1-2.97,2.6-4.64,4.5-3.69,4.18-6.01,7.16-6.97,8.93,1.96-.06,3.67-.11,5.11-.18,2.25-.07,4.35-.09,6.3-.06Z"/>
      <path class="cls-19" d="M321.51,639.23l-1.65-2.01c2.14-1.73,4.19-3.65,6.13-5.76,1.94-2.11,3.58-4.32,4.91-6.63s2.01-4.46,2.04-6.46c.02-1.57-.23-2.99-.75-4.24-.52-1.25-1.23-2.35-2.13-3.29-.88-.93-1.82-1.75-2.82-2.48-1-.73-2.52-1.79-4.56-3.19-1.29,1.12-2.25,2.14-2.89,3.07-.64.93-.97,1.92-.98,2.97-.02,1.29.47,2.69,1.46,4.21.99,1.52,2.2,2.81,3.62,3.85,1.42,1.05,2.69,1.58,3.81,1.59.88.01,1.47-.04,1.78-.15l1.03.85c-.78,1.12-1.87,2.27-3.27,3.46-1.4,1.18-2.52,1.76-3.37,1.75-.91-.01-2.11-.63-3.59-1.86-1.48-1.22-2.76-2.75-3.85-4.58-1.09-1.83-1.62-3.63-1.59-5.41.03-1.71.51-3.34,1.45-4.9.94-1.56,1.9-2.81,2.88-3.74.98-.93,2.06-1.89,3.24-2.87,1.34-1.13,2.32-1.92,2.96-2.37.65-.43,1.27-.64,1.86-.63.68,0,1.69.42,3.04,1.24,1.35.82,2.73,1.92,4.14,3.3,1.41,1.38,2.6,2.96,3.57,4.74.94,1.78,1.39,3.59,1.36,5.46-.03,2.15-.57,4.28-1.62,6.4-1.05,2.12-2.39,4.13-4.01,6.03-1.63,1.9-3.28,3.63-4.96,5.18-1.67,1.55-4.09,3.71-7.25,6.47Z"/>
      <path class="cls-19" d="M392.28,629.48c-.79-.01-1.91-.56-3.34-1.64-1.43-1.08-2.89-2.55-4.36-4.42s-2.7-3.99-3.66-6.35c-.96-2.37-1.43-4.79-1.39-7.26.04-2.32.5-4.41,1.39-6.28.89-1.88,1.82-3.35,2.8-4.4.97-1.05,2.14-2.2,3.52-3.45.58-.52,1.06-.94,1.44-1.27.98-.92,1.73-1.57,2.26-1.96.53-.39,1.03-.58,1.51-.57,1.01.01,2.17.71,3.47,2.07,1.3,1.37,2.56,3.12,3.77,5.26,1.21,2.14,2.19,4.33,2.93,6.55.74,2.22,1.11,4.12,1.08,5.69-.03,1.95-.45,3.98-1.25,6.11s-1.83,4.1-3.07,5.91c-1.23,1.81-2.5,3.26-3.8,4.36-1.29,1.11-2.39,1.67-3.3,1.65ZM395.83,623.23c.51,0,1.09-.29,1.74-.89.65-.6,1.21-1.34,1.66-2.23.45-.89.69-1.74.7-2.55.02-1.51-.44-3.33-1.38-5.48-.94-2.15-2.11-4.24-3.5-6.28-1.39-2.04-2.76-3.72-4.11-5.06-1.33-1.34-2.34-2.02-3.02-2.03-.58,0-1.26.32-2.05.98-.77.68-1.44,1.57-2,2.66-.54,1.11-.82,2.25-.84,3.42-.02,1.61.45,3.4,1.42,5.38.97,1.98,2.2,3.89,3.68,5.74,1.49,1.85,2.95,3.37,4.39,4.55,1.44,1.18,2.54,1.78,3.3,1.79Z"/>
    </g>
    <g>
      <path class="cls-19" d="M316.83,242.42v-23.66l6.58-.81v8.52l7.98-.99v-8.52l6.58-.81v23.66l-6.58.81v-9.46l-7.98.99v9.46l-6.58.81Z"/>
      <path class="cls-19" d="M349.23,238.06v-23.66l9.65-1.71c.88-.16,1.9-.21,3.06-.15,1.17.06,2.29.51,3.37,1.37s1.62,2.34,1.62,4.45c0,1.34-.23,2.54-.69,3.58-.46,1.04-1.06,1.92-1.78,2.63-.73.71-1.53,1.29-2.42,1.76l6.52,8.31-7.89,1.4-4.92-6.94v7.81l-6.52,1.15ZM355.76,223.9l1.59-.28c1.08-.19,1.87-.59,2.34-1.21.48-.61.72-1.3.72-2.07s-.24-1.34-.72-1.78-1.26-.56-2.34-.37l-1.59.28v5.44Z"/>
      <path class="cls-19" d="M377.65,232.73v-23.66l13.85-3.11v5.68l-7.38,1.66v3.31l6.69-1.5v5.21l-6.69,1.5v3.79l7.38-1.66v5.68l-13.85,3.11Z"/>
      <path class="cls-19" d="M401.86,203.43l11.05-3.04c1.82-.5,3.24-.56,4.25-.19,1.01.38,1.69.97,2.04,1.77.35.8.52,1.66.52,2.56,0,1.17-.34,2.28-1.01,3.33-.68,1.06-1.53,1.92-2.55,2.58v.07c1.16-.03,2.25.27,3.28.91,1.03.64,1.55,1.91,1.55,3.81,0,1.12-.26,2.26-.77,3.41-.51,1.15-1.33,2.19-2.45,3.13-1.12.94-2.54,1.64-4.25,2.11l-11.67,3.21v-23.66ZM408.25,211l2.68-.74c1.95-.54,2.93-1.55,2.93-3.03,0-.69-.23-1.19-.7-1.51s-1.21-.34-2.23-.05l-2.68.74v4.6ZM408.25,220.6l2.93-.81c2.28-.63,3.42-1.78,3.42-3.45,0-1.58-1.14-2.05-3.42-1.42l-2.93.81v4.88Z"/>
      <path class="cls-19" d="M430.73,218.79v-23.66l6.3-2.06v17.98l6.74-2.21v5.68l-13.04,4.27Z"/>
      <path class="cls-19" d="M452.93,211.22v-23.66l6.21-2.32v23.66l-6.21,2.32Z"/>
      <path class="cls-19" d="M467.63,205.78l7.7-27.06,7.36-3.25,7.67,20.27-6.49,2.86-1.18-3.57-7.36,3.25-1.21,4.62-6.49,2.86ZM479.01,182.54l-2.48,10.02,4.94-2.18-2.47-7.84Z"/>
    </g>
  </g>
</svg>