<?xml version="1.0" encoding="UTF-8"?>
<svg id="_Шар_1" data-name="Шар 1" xmlns="http://www.w3.org/2000/svg" viewBox="0 0 600 300">
  <defs>
    <style>
      .cls-1 {
        fill: none;
        stroke: #000;
        stroke-linecap: round;
        stroke-linejoin: round;
        stroke-width: 10px;
      }
    </style>
  </defs>
  <path class="cls-1" d="M37.62,104.28c28.51-13.19,34.72-42.71,34.72-42.71,0,0-5.34,114.69-6.95,128.55-1.87,16.16-8.08,28.96-20.94,28.96-16.4,0-19.87-17.88-19.87-25.35"/>
  <path class="cls-1" d="M69.87,140.32s22.04-6.4,35.29-16.71c14.28-11.11,30.1-25.97,33.92-40.16,2.5-9.27,1.19-20.67-6.03-21.89-5.73-.97-16.31,2.67-18.09,18.06-3.37,29.07-5.77,97.94-3.26,116.92,1.9,14.37,8.67,22.53,19.36,22.53,11.35,0,29.12-28.01,37.14-67.22"/>
  <path class="cls-1" d="M202.68,115.77c-18.56,0-35.5,26.38-35.93,56.49-.34,24.08,9.86,46.81,31.27,46.81,18.68,0,32.83-19.72,33.51-45.17s2.77-58.14-28.86-58.14Z"/>
  <path class="cls-1" d="M333.76,116.22s-8.22,52.98-6,70.45c2.08,16.4,10.4,32.4,24.89,32.4,16,0,24.24-13.57,25.66-30.21,1.7-19.82,7.62-73.1,7.62-73.1,0,0-6.91,56.01-5.48,73.19.95,11.41,2.93,30.12,12.91,30.12,13.87,0,22.66-13.11,25.69-57.36"/>
  <path class="cls-1" d="M498.79,116.22s-8.22,52.98-6,70.45c2.08,16.4,6.4,32.4,20.89,32.4,16,0,27.76-17.38,29.66-30.21,2.93-19.68,7.62-73.1,7.62-73.1,0,0-6.91,56.01-5.48,73.19.95,11.41,2.93,30.12,12.91,30.12,7.81,0,17.4-5.77,23.17-22.37"/>
  <line class="cls-1" x1="423.46" y1="115.77" x2="414.96" y2="219.08"/>
  <line class="cls-1" x1="419.32" y1="162.71" x2="458.44" y2="163.48"/>
  <path class="cls-1" d="M464.33,115.77s-8.04,65.6-8.04,78.79c0,10.93,5.43,24.51,13.74,24.51,9.86,0,20.32-18.33,21.77-46.73"/>
  <path class="cls-1" d="M249.71,136.25c7.6-27.95,38.58-32.58,42.82-50.84,3.44-14.82-.79-22.77-6.89-23.85-13.88-2.45-22.34,9.12-23.76,25.51-1.52,17.46-8.64,70.53-7.84,98.02.56,19.52,6,33.98,21.68,33.98,24.12,0,33.92-28.45,32.2-51.68-2.85-38.5-19.9-47.83-42-51.63,17.81-2.14,43.38,19.45,67.85,0"/>
  <path class="cls-1" d="M228.68,191.09l21.03-54.83"/>
</svg>